<?xml version="1.0" encoding="UTF-8"?>
<svg width="128" height="128" viewBox="0 0 128 128" fill="none" xmlns="http://www.w3.org/2000/svg" role="img" aria-label="AquaPanel logo">
  <defs>
    <linearGradient id="apg" x1="0" y1="0" x2="1" y2="1">
      <stop offset="0%" stop-color="#2563eb"/>
      <stop offset="100%" stop-color="#1d4ed8"/>
    </linearGradient>
    <filter id="shadow" x="-20%" y="-20%" width="140%" height="140%">
      <feDropShadow dx="0" dy="4" stdDeviation="6" flood-color="#1d4ed8" flood-opacity="0.25"/>
    </filter>
  </defs>

  <!-- Rounded square background for versatility on light/dark -->
  <rect x="12" y="12" width="104" height="104" rx="24" fill="url(#apg)" filter="url(#shadow)"/>

  <!-- Water droplet made from two shapes to get a clean mark -->
  <path d="M64 30c10 12 22 24 22 38 0 13.255-9.745 24-22 24s-22-10.745-22-24c0-14 12-26 22-38z" fill="#ffffff"/>
  <!-- Inner wave -->
  <path d="M42 72c4.5 0 7.5-3 12-3s7.5 3 12 3 7.5-3 12-3c4.5 0 7.5 3 12 3" stroke="url(#apg)" stroke-width="3" stroke-linecap="round" fill="none" opacity="0.85"/>
</svg>
